<?xml version="1.0" encoding="utf-8"?>
<!-- Generator: Adobe Illustrator 18.1.1, SVG Export Plug-In . SVG Version: 6.00 Build 0)  -->
<svg version="1.1" xmlns="http://www.w3.org/2000/svg" xmlns:xlink="http://www.w3.org/1999/xlink" x="0px" y="0px"
	 viewBox="0 0 800 800" enable-background="new 0 0 800 800" xml:space="preserve">
<g id="Background" display="none">
	
		<radialGradient id="SVGID_1_" cx="395.0873" cy="403.9917" r="404.0047" gradientTransform="matrix(0.9873 0 0 0.9901 9.9303 7.800000e-003)" gradientUnits="userSpaceOnUse">
		<stop  offset="0" style="stop-color:#FFFFFF"/>
		<stop  offset="0.2597" style="stop-color:#F1F8F4"/>
		<stop  offset="0.6837" style="stop-color:#E0F0E7"/>
		<stop  offset="1" style="stop-color:#DAEDE2"/>
	</radialGradient>
	<rect x="1.1" display="inline" fill="url(#SVGID_1_)" width="797.8" height="800"/>
	<rect x="1.1" display="inline" fill="none" width="797.8" height="800"/>
</g>
<g id="Object">
	<g>
		<g id="robot-leg--right">
			<polygon fill="#333745" points="433,661 467.2,661 445,479.9 410.8,479.9 			"/>
			<path fill="#EA2E49" d="M486.3,676.9c0-17.5-14.2-31.7-31.7-31.7c-17.5,0-31.7,14.2-31.7,31.7H486.3z"/>
			<circle fill="#F6F792" cx="439" cy="570.5" r="20.9"/>
		</g>
		<g id="robot-leg--left">
			<polygon fill="#333745" points="367,661 332.8,661 355,479.9 389.2,479.9 			"/>
			<path fill="#EA2E49" d="M378.6,678.7c0-17.5-14.2-31.7-31.7-31.7c-17.5,0-31.7,14.2-31.7,31.7H378.6z"/>
			<circle fill="#F6F792" cx="361" cy="570.5" r="20.9"/>
		</g>
		<g id="robot-arm--right">
			<path fill="#333745" d="M535.8,412.8c-12,0-24.2-4.2-36.3-12.5c-10.1-6.9-20.2-16.8-30.1-29.3c-11.6-14.8-20-29.7-24.1-37.4
				l-7.6-2.1l7-24.6l18.6,5.2l2.5,5.2c0.1,0.2,9.5,19.7,24.1,38.2c12.2,15.4,30.5,33.4,48.7,31.5c21.8-2.2,27.7-22.9,28-23.8l0,0.1
				l24.8,6.3c-0.3,1-2.7,10.2-9.9,19.9c-9.8,13.3-23.8,21.3-40.3,23C539.3,412.7,537.5,412.8,535.8,412.8z"/>
		</g>
		<g id="robot-arm--left">
			<path fill="#333745" d="M270.4,444.2l-9.2-23.9c23-8.9,35.5-20.1,39.4-35.4c4-15.8,7.7-28.2,12-40.2c0.1-0.4,0.3-0.8,0.5-1.3
				c2-5.6,5.2-14.9,12-22.9c8.7-10.3,20.8-15.8,35.2-15.8v25.6c-14.3,0-18.9,9.7-23,21.5c-0.2,0.5-0.3,1-0.5,1.4
				c-4.1,11.4-7.5,22.7-11.3,37.9c-3.4,13.4-10.9,25-22.2,34.5C294.7,432.9,283.9,439,270.4,444.2z"/>
		</g>
		<g>
			<g id="robot-neck">
				<polygon fill="#DAEDE2" points="377.6,274.3 377.6,280.4 395.6,274.3 				"/>
				<polygon fill="#DAEDE2" points="377.6,308.2 378.9,308.2 422.1,293.5 422.1,288.5 377.6,303.6 				"/>
				<polygon fill="#DAEDE2" points="377.6,289.6 377.6,294.5 422.1,279.4 422.1,274.5 				"/>
				<polygon fill="#DAEDE2" points="420.2,308.2 422.1,307.6 422.1,302.6 405.7,308.2 				"/>
				<polygon fill="#333745" points="422.1,274.3 395.6,274.3 377.6,280.4 377.6,289.6 422.1,274.5 				"/>
				<polygon fill="#333745" points="377.6,303.6 422.1,288.5 422.1,279.4 377.6,294.5 				"/>
				<polygon fill="#333745" points="405.7,308.2 422.1,302.6 422.1,293.5 378.9,308.2 				"/>
				<polygon fill="#333745" points="422.1,308.2 422.1,307.6 420.2,308.2 				"/>
			</g>
			<!-- <g>
				<rect x="448.4" y="131.8" fill="#DAEDE2" width="11.8" height="35.5"/>
				<polygon fill="#333745" points="460.2,131.8 450.8,131.8 448.4,132.9 448.4,137.3 460.2,131.8 				"/>
				<polygon fill="#333745" points="448.4,145.6 460.2,140.2 460.2,135.8 448.4,141.2 				"/>
				<polygon fill="#333745" points="448.4,153.9 460.2,148.5 460.2,144.1 448.4,149.5 				"/>
				<polygon fill="#333745" points="448.4,162.2 460.2,156.8 460.2,152.4 448.4,157.9 				"/>
				<polygon fill="#DAEDE2" points="448.4,167.3 455.5,167.3 460.2,165.1 460.2,160.8 448.4,166.2 				"/>
			</g> -->
			<!-- <path fill="#77C4D3" d="M474.4,265.5c0,7.8-6.3,14.1-14.1,14.1H339.4c-7.8,0-14.1-6.3-14.1-14.1l-4.5-95.4
				c0-7.8,6.3-14.1,14.1-14.1h129.9c7.8,0,14.1,6.3,14.1,14.1L474.4,265.5z"/>
			<g>
				<circle fill="#FFFFFF" cx="425.6" cy="205.5" r="10.4"/>
				<path fill="#333745" d="M433,212.9c4.1-4.1,4.1-10.6,0-14.7c-4.1-4.1-10.6-4.1-14.7,0L433,212.9z"/>
			</g>
			<circle fill="#333745" cx="402.4" cy="164" r="2.6"/>
			<circle fill="#333745" cx="469.6" cy="166.6" r="2.6"/>
			<circle fill="#333745" cx="469.2" cy="176.1" r="2.6"/>
			<circle fill="#333745" cx="468.7" cy="185.6" r="2.6"/>
			<circle fill="#333745" cx="468.2" cy="195.1" r="2.6"/>
			<circle fill="#333745" cx="467.8" cy="204.6" r="2.6"/>
			<circle fill="#333745" cx="467.3" cy="214" r="2.6"/>
			<circle fill="#333745" cx="466.9" cy="223.5" r="2.6"/>
			<circle fill="#333745" cx="466.4" cy="233" r="2.6"/>
			<circle fill="#333745" cx="465.9" cy="242.5" r="2.6"/>
			<circle fill="#333745" cx="465.5" cy="251.9" r="2.6"/>
			<circle fill="#333745" cx="465" cy="261.4" r="2.6"/>
			<circle fill="#333745" cx="413.8" cy="164" r="2.6"/>
			<circle fill="#333745" cx="425.2" cy="164" r="2.6"/>
			<circle fill="#333745" cx="436.7" cy="164" r="2.6"/>
			<circle fill="#333745" cx="448.1" cy="164" r="2.6"/>
			<circle fill="#333745" cx="459.5" cy="164" r="2.6"/>
			<path fill="#EA2E49" d="M463.5,128.4c0,3.4-2.7,6.1-6.1,6.1h-6.8c-3.4,0-6.1-2.7-6.1-6.1v-1.1c0-3.4,2.7-6.1,6.1-6.1h6.8
				c3.4,0,6.1,2.7,6.1,6.1V128.4z"/> -->
			<!-- <circle fill="#FFFFFF" cx="459.3" cy="125.9" r="2.4"/>
			<path fill="#EA2E49" d="M446.9,257.1c0,3.4-2.7,6.1-6.1,6.1h-81.9c-3.4,0-6.1-2.7-6.1-6.1v-12.3c0-3.4,2.7-6.1,6.1-6.1h81.9
				c3.4,0,6.1,2.7,6.1,6.1V257.1z"/>
			<g>
				<path fill="#333745" d="M439.2,252.9h-78.4c-1.1,0-1.9-0.9-1.9-1.9c0-1.1,0.9-1.9,1.9-1.9h78.4c1.1,0,1.9,0.9,1.9,1.9
					C441.1,252,440.2,252.9,439.2,252.9z"/>
			</g> -->
			<!-- <circle fill="#DAEDE2" cx="374.1" cy="205.5" r="18.1"/> -->
			<!-- <g>
				<circle fill="#FFFFFF" cx="374.1" cy="205.5" r="10.4"/>
				<path fill="#333745" d="M381.4,212.9c4.1-4.1,4.1-10.6,0-14.7c-4.1-4.1-10.6-4.1-14.7,0L381.4,212.9z"/>
			</g> -->
			<path id="robot-body" fill="#77C4D3" d="M470.5,485.7c0,12.7-10.3,23-23,23h-95.3c-12.7,0-23-10.3-23-23V327.2c0-12.7,10.3-23,23-23h95.3
				c12.7,0,23,10.3,23,23V485.7z"/>
			<circle fill="#333745" cx="340" cy="325.4" r="2.6"/>
			<circle fill="#333745" cx="340" cy="336.8" r="2.6"/>
			<circle fill="#333745" cx="340" cy="348.2" r="2.6"/>
			<circle fill="#333745" cx="340" cy="359.6" r="2.6"/>
			<circle fill="#333745" cx="340" cy="370.9" r="2.6"/>
			<circle fill="#333745" cx="340" cy="382.3" r="2.6"/>
			<circle fill="#333745" cx="340" cy="393.7" r="2.6"/>
			<circle fill="#333745" cx="340" cy="405.1" r="2.6"/>
			<circle fill="#333745" cx="340" cy="416.5" r="2.6"/>
			<circle fill="#333745" cx="340" cy="427.9" r="2.6"/>
			<circle fill="#333745" cx="340" cy="439.3" r="2.6"/>
			<circle fill="#333745" cx="340" cy="450.7" r="2.6"/>
			<circle fill="#333745" cx="340" cy="462.1" r="2.6"/>
			<circle fill="#333745" cx="340" cy="473.5" r="2.6"/>
			<circle fill="#333745" cx="340" cy="484.9" r="2.6"/>
			<circle fill="#333745" cx="422.3" cy="495.9" r="2.6"/>
			<circle fill="#333745" cx="410.9" cy="495.9" r="2.6"/>
			<circle fill="#333745" cx="399.6" cy="495.9" r="2.6"/>
			<circle fill="#333745" cx="388.2" cy="495.9" r="2.6"/>
			<circle fill="#333745" cx="376.8" cy="495.9" r="2.6"/>
			<circle fill="#333745" cx="365.4" cy="495.9" r="2.6"/>
			<circle fill="#333745" cx="354" cy="495.9" r="2.6"/>
			<circle fill="#333745" cx="342.6" cy="495.9" r="2.6"/>
		</g>
		<circle fill="#F6F792" cx="446.9" cy="345.6" r="8.8"/>
		<circle fill="#F6F792" cx="446.9" cy="374.5" r="8.8"/>
		<circle fill="#F6F792" cx="446.9" cy="403.4" r="8.8"/>
		<path fill="#EA2E49" d="M415.9,471c0,1.7-1.4,3.1-3.1,3.1h-53.3c-1.7,0-3.1-1.4-3.1-3.1l0,0c0-1.7,1.4-3.1,3.1-3.1h53.3
			C414.5,467.8,415.9,469.2,415.9,471L415.9,471z"/>
		<path fill="#EA2E49" d="M415.9,456.4c0,1.7-1.4,3.1-3.1,3.1h-53.3c-1.7,0-3.1-1.4-3.1-3.1l0,0c0-1.7,1.4-3.1,3.1-3.1h53.3
			C414.5,453.3,415.9,454.7,415.9,456.4L415.9,456.4z"/>
		<path fill="#EA2E49" d="M415.9,441.9c0,1.7-1.4,3.1-3.1,3.1h-53.3c-1.7,0-3.1-1.4-3.1-3.1l0,0c0-1.7,1.4-3.1,3.1-3.1h53.3
			C414.5,438.8,415.9,440.2,415.9,441.9L415.9,441.9z"/>
		<path fill="#EA2E49" d="M415.9,427.4c0,1.7-1.4,3.1-3.1,3.1h-53.3c-1.7,0-3.1-1.4-3.1-3.1l0,0c0-1.7,1.4-3.1,3.1-3.1h53.3
			C414.5,424.2,415.9,425.6,415.9,427.4L415.9,427.4z"/>
		<path fill="#EA2E49" d="M415.9,412.8c0,1.7-1.4,3.1-3.1,3.1h-53.3c-1.7,0-3.1-1.4-3.1-3.1l0,0c0-1.7,1.4-3.1,3.1-3.1h53.3
			C414.5,409.7,415.9,411.1,415.9,412.8L415.9,412.8z"/>
		<path fill="#EA2E49" d="M415.9,398.3c0,1.7-1.4,3.1-3.1,3.1h-53.3c-1.7,0-3.1-1.4-3.1-3.1l0,0c0-1.7,1.4-3.1,3.1-3.1h53.3
			C414.5,395.1,415.9,396.6,415.9,398.3L415.9,398.3z"/>
		<path fill="#EA2E49" d="M415.9,383.8c0,1.7-1.4,3.1-3.1,3.1h-53.3c-1.7,0-3.1-1.4-3.1-3.1l0,0c0-1.7,1.4-3.1,3.1-3.1h53.3
			C414.5,380.6,415.9,382,415.9,383.8L415.9,383.8z"/>
		<polygon id="robot-hand--right" fill="#EA2E49" points="622.9,314.7 610,321 607,345.4 582.1,357.7 569.8,332.8 582.4,311.6 576,298.7 546.1,331.4 
			574.5,379.9 626.6,358.8 		"/>
		<polygon id="robot-hand--left" fill="#EA2E49" points="200.8,438.9 214.4,443.6 233.8,428.4 260.1,437.3 251.2,463.7 227.3,469.7 222.6,483.3 
			266.9,481.4 281.2,427 229.4,405.1 		"/>
	</g>
</g>
</svg>
